<svg id="visual" viewBox="0 0 900 600" width="900" height="600" xmlns="http://www.w3.org/2000/svg" xmlns:xlink="http://www.w3.org/1999/xlink" version="1.1"><path d="M0 434L21.5 427.7C43 421.3 86 408.7 128.8 407.3C171.7 406 214.3 416 257.2 421.5C300 427 343 428 385.8 427.3C428.7 426.7 471.3 424.3 514.2 414.5C557 404.7 600 387.3 642.8 382.2C685.7 377 728.3 384 771.2 390.3C814 396.7 857 402.3 878.5 405.2L900 408L900 601L878.5 601C857 601 814 601 771.2 601C728.3 601 685.7 601 642.8 601C600 601 557 601 514.2 601C471.3 601 428.7 601 385.8 601C343 601 300 601 257.2 601C214.3 601 171.7 601 128.8 601C86 601 43 601 21.5 601L0 601Z" fill="#ff3434"></path><path d="M0 471L21.5 471.3C43 471.7 86 472.3 128.8 463C171.7 453.7 214.3 434.3 257.2 435.2C300 436 343 457 385.8 456.3C428.7 455.7 471.3 433.3 514.2 426.7C557 420 600 429 642.8 436.2C685.7 443.3 728.3 448.7 771.2 444C814 439.3 857 424.7 878.5 417.3L900 410L900 601L878.5 601C857 601 814 601 771.2 601C728.3 601 685.7 601 642.8 601C600 601 557 601 514.2 601C471.3 601 428.7 601 385.8 601C343 601 300 601 257.2 601C214.3 601 171.7 601 128.8 601C86 601 43 601 21.5 601L0 601Z" fill="#c43730"></path><path d="M0 508L21.5 502.8C43 497.7 86 487.3 128.8 479.5C171.7 471.7 214.3 466.3 257.2 468C300 469.7 343 478.3 385.8 476.8C428.7 475.3 471.3 463.7 514.2 455.7C557 447.7 600 443.3 642.8 443.8C685.7 444.3 728.3 449.7 771.2 451C814 452.3 857 449.7 878.5 448.3L900 447L900 601L878.5 601C857 601 814 601 771.2 601C728.3 601 685.7 601 642.8 601C600 601 557 601 514.2 601C471.3 601 428.7 601 385.8 601C343 601 300 601 257.2 601C214.3 601 171.7 601 128.8 601C86 601 43 601 21.5 601L0 601Z" fill="#8c342b"></path><path d="M0 487L21.5 488.7C43 490.3 86 493.7 128.8 501.3C171.7 509 214.3 521 257.2 528C300 535 343 537 385.8 531.8C428.7 526.7 471.3 514.3 514.2 508.8C557 503.3 600 504.7 642.8 511C685.7 517.3 728.3 528.7 771.2 527.7C814 526.7 857 513.3 878.5 506.7L900 500L900 601L878.5 601C857 601 814 601 771.2 601C728.3 601 685.7 601 642.8 601C600 601 557 601 514.2 601C471.3 601 428.7 601 385.8 601C343 601 300 601 257.2 601C214.3 601 171.7 601 128.8 601C86 601 43 601 21.5 601L0 601Z" fill="#562c26"></path><path d="M0 558L21.5 554.5C43 551 86 544 128.8 544.7C171.7 545.3 214.3 553.7 257.2 556.8C300 560 343 558 385.8 555.2C428.7 552.3 471.3 548.7 514.2 547.5C557 546.3 600 547.7 642.8 544.8C685.7 542 728.3 535 771.2 532C814 529 857 530 878.5 530.5L900 531L900 601L878.5 601C857 601 814 601 771.2 601C728.3 601 685.7 601 642.8 601C600 601 557 601 514.2 601C471.3 601 428.7 601 385.8 601C343 601 300 601 257.2 601C214.3 601 171.7 601 128.8 601C86 601 43 601 21.5 601L0 601Z" fill="#212121"></path></svg>