<svg id="visual" viewBox="0 0 900 450" width="900" height="450" xmlns="http://www.w3.org/2000/svg" xmlns:xlink="http://www.w3.org/1999/xlink" version="1.1"><path d="M0 122L21.5 126.8C43 131.7 86 141.3 128.8 142.5C171.7 143.7 214.3 136.3 257.2 132.3C300 128.3 343 127.7 385.8 128.2C428.7 128.7 471.3 130.3 514.2 137.7C557 145 600 158 642.8 161.8C685.7 165.7 728.3 160.3 771.2 155.5C814 150.7 857 146.3 878.5 144.2L900 142L900 0L878.5 0C857 0 814 0 771.2 0C728.3 0 685.7 0 642.8 0C600 0 557 0 514.2 0C471.3 0 428.7 0 385.8 0C343 0 300 0 257.2 0C214.3 0 171.7 0 128.8 0C86 0 43 0 21.5 0L0 0Z" fill="#0a0a0a"></path><path d="M0 95L21.5 94.7C43 94.3 86 93.7 128.8 100.7C171.7 107.7 214.3 122.3 257.2 121.7C300 121 343 105 385.8 105.5C428.7 106 471.3 123 514.2 128.2C557 133.3 600 126.7 642.8 121.3C685.7 116 728.3 112 771.2 115.5C814 119 857 130 878.5 135.5L900 141L900 0L878.5 0C857 0 814 0 771.2 0C728.3 0 685.7 0 642.8 0C600 0 557 0 514.2 0C471.3 0 428.7 0 385.8 0C343 0 300 0 257.2 0C214.3 0 171.7 0 128.8 0C86 0 43 0 21.5 0L0 0Z" fill="#111111"></path><path d="M0 67L21.5 71C43 75 86 83 128.8 88.8C171.7 94.7 214.3 98.3 257.2 97C300 95.7 343 89.3 385.8 90.5C428.7 91.7 471.3 100.3 514.2 106.3C557 112.3 600 115.7 642.8 115.3C685.7 115 728.3 111 771.2 110C814 109 857 111 878.5 112L900 113L900 0L878.5 0C857 0 814 0 771.2 0C728.3 0 685.7 0 642.8 0C600 0 557 0 514.2 0C471.3 0 428.7 0 385.8 0C343 0 300 0 257.2 0C214.3 0 171.7 0 128.8 0C86 0 43 0 21.5 0L0 0Z" fill="#171717"></path><path d="M0 83L21.5 81.7C43 80.3 86 77.7 128.8 71.8C171.7 66 214.3 57 257.2 51.8C300 46.7 343 45.3 385.8 49.3C428.7 53.3 471.3 62.7 514.2 66.8C557 71 600 70 642.8 65.3C685.7 60.7 728.3 52.3 771.2 53.2C814 54 857 64 878.5 69L900 74L900 0L878.5 0C857 0 814 0 771.2 0C728.3 0 685.7 0 642.8 0C600 0 557 0 514.2 0C471.3 0 428.7 0 385.8 0C343 0 300 0 257.2 0C214.3 0 171.7 0 128.8 0C86 0 43 0 21.5 0L0 0Z" fill="#1c1c1c"></path><path d="M0 30L21.5 32.7C43 35.3 86 40.7 128.8 40.2C171.7 39.7 214.3 33.3 257.2 31C300 28.7 343 30.3 385.8 32.5C428.7 34.7 471.3 37.3 514.2 38.2C557 39 600 38 642.8 40C685.7 42 728.3 47 771.2 49.2C814 51.3 857 50.7 878.5 50.3L900 50L900 0L878.5 0C857 0 814 0 771.2 0C728.3 0 685.7 0 642.8 0C600 0 557 0 514.2 0C471.3 0 428.7 0 385.8 0C343 0 300 0 257.2 0C214.3 0 171.7 0 128.8 0C86 0 43 0 21.5 0L0 0Z" fill="#212121"></path></svg>